<mxfile host="app.diagrams.net" modified="2023-10-04T23:29:00.805Z" agent="Mozilla/5.0 (Windows NT 10.0; Win64; x64) AppleWebKit/537.36 (KHTML, like Gecko) Chrome/116.0.0.0 Safari/537.36 OPR/102.0.0.0 (Edition Campaign ni2)" etag="qdjX4CvhpQzagmxnJGNP" version="22.0.2" type="device" pages="2">
  <diagram name="Page-1" id="2cc2dc42-3aac-f2a9-1cec-7a8b7cbee084">
    <mxGraphModel dx="4122" dy="3368" grid="1" gridSize="10" guides="1" tooltips="1" connect="1" arrows="1" fold="1" page="1" pageScale="1" pageWidth="1169" pageHeight="827" background="#ffffff" math="0" shadow="0">
      <root>
        <mxCell id="0" />
        <mxCell id="1" parent="0" />
        <mxCell id="J2UCvn-4iJ-qASJBO4F3-1" value="" style="strokeWidth=1;shadow=0;dashed=0;align=center;html=1;shape=mxgraph.mockup.containers.browserWindow;rSize=0;strokeColor=#666666;strokeColor2=#008cff;strokeColor3=#c4c4c4;mainText=,;recursiveResize=0;" parent="1" vertex="1">
          <mxGeometry x="-1190" y="-2450" width="1410" height="3261" as="geometry" />
        </mxCell>
        <mxCell id="J2UCvn-4iJ-qASJBO4F3-2" value="Page 1" style="strokeWidth=1;shadow=0;dashed=0;align=center;html=1;shape=mxgraph.mockup.containers.anchor;fontSize=17;fontColor=#666666;align=left;whiteSpace=wrap;" parent="J2UCvn-4iJ-qASJBO4F3-1" vertex="1">
          <mxGeometry x="60" y="12" width="110" height="26" as="geometry" />
        </mxCell>
        <mxCell id="J2UCvn-4iJ-qASJBO4F3-3" value="https://www.draw.io" style="strokeWidth=1;shadow=0;dashed=0;align=center;html=1;shape=mxgraph.mockup.containers.anchor;rSize=0;fontSize=17;fontColor=#666666;align=left;" parent="J2UCvn-4iJ-qASJBO4F3-1" vertex="1">
          <mxGeometry x="130" y="60" width="250" height="26" as="geometry" />
        </mxCell>
        <mxCell id="J2UCvn-4iJ-qASJBO4F3-5" value="" style="verticalLabelPosition=bottom;html=1;verticalAlign=top;align=center;strokeColor=none;fillColor=#00BEF2;shape=mxgraph.azure.azure_marketplace;" parent="J2UCvn-4iJ-qASJBO4F3-1" vertex="1">
          <mxGeometry x="562" y="110" width="108" height="70" as="geometry" />
        </mxCell>
        <mxCell id="PFP66u5YC3WLjHLZGdA7-7" value="" style="endArrow=none;html=1;rounded=0;exitX=1;exitY=0;exitDx=0;exitDy=0;entryX=0.5;entryY=0;entryDx=0;entryDy=0;" parent="J2UCvn-4iJ-qASJBO4F3-1" edge="1">
          <mxGeometry width="50" height="50" relative="1" as="geometry">
            <mxPoint x="1410" y="190" as="sourcePoint" />
            <mxPoint x="1160" y="190" as="targetPoint" />
            <Array as="points" />
          </mxGeometry>
        </mxCell>
        <mxCell id="J2UCvn-4iJ-qASJBO4F3-11" value="Iniciar Sesion" style="strokeWidth=1;shadow=0;dashed=0;align=center;html=1;shape=mxgraph.mockup.text.textBox;fontColor=#666666;align=left;fontSize=17;spacingLeft=4;spacingTop=-3;whiteSpace=wrap;strokeColor=#666666;mainText=" parent="J2UCvn-4iJ-qASJBO4F3-1" vertex="1">
          <mxGeometry x="1110" y="150" width="150" height="40" as="geometry" />
        </mxCell>
        <mxCell id="J2UCvn-4iJ-qASJBO4F3-12" value="Crear Cuenta" style="strokeWidth=1;shadow=0;dashed=0;align=center;html=1;shape=mxgraph.mockup.text.textBox;fontColor=#666666;align=left;fontSize=17;spacingLeft=4;spacingTop=-3;whiteSpace=wrap;strokeColor=#666666;mainText=" parent="J2UCvn-4iJ-qASJBO4F3-1" vertex="1">
          <mxGeometry x="960" y="150" width="150" height="40" as="geometry" />
        </mxCell>
        <mxCell id="vVmq0rC3IvV-BaaW3TVv-1" value="Indumentaria" style="strokeWidth=1;shadow=0;dashed=0;align=center;html=1;shape=mxgraph.mockup.text.textBox;fontColor=#666666;align=left;fontSize=17;spacingLeft=4;spacingTop=-3;whiteSpace=wrap;strokeColor=#666666;mainText=" parent="J2UCvn-4iJ-qASJBO4F3-1" vertex="1">
          <mxGeometry y="190" width="130" height="30" as="geometry" />
        </mxCell>
        <mxCell id="vVmq0rC3IvV-BaaW3TVv-2" value="Joyeria" style="strokeWidth=1;shadow=0;dashed=0;align=center;html=1;shape=mxgraph.mockup.text.textBox;fontColor=#666666;align=left;fontSize=17;spacingLeft=4;spacingTop=-3;whiteSpace=wrap;strokeColor=#666666;mainText=" parent="J2UCvn-4iJ-qASJBO4F3-1" vertex="1">
          <mxGeometry x="130" y="190" width="100" height="30" as="geometry" />
        </mxCell>
        <mxCell id="vVmq0rC3IvV-BaaW3TVv-3" value="Accesorios" style="strokeWidth=1;shadow=0;dashed=0;align=center;html=1;shape=mxgraph.mockup.text.textBox;fontColor=#666666;align=left;fontSize=17;spacingLeft=4;spacingTop=-3;whiteSpace=wrap;strokeColor=#666666;mainText=" parent="J2UCvn-4iJ-qASJBO4F3-1" vertex="1">
          <mxGeometry x="230" y="190" width="120" height="30" as="geometry" />
        </mxCell>
        <mxCell id="vVmq0rC3IvV-BaaW3TVv-4" value="FAQ" style="strokeWidth=1;shadow=0;dashed=0;align=center;html=1;shape=mxgraph.mockup.text.textBox;fontColor=#666666;align=left;fontSize=17;spacingLeft=4;spacingTop=-3;whiteSpace=wrap;strokeColor=#666666;mainText=" parent="J2UCvn-4iJ-qASJBO4F3-1" vertex="1">
          <mxGeometry x="520" y="190" width="80" height="30" as="geometry" />
        </mxCell>
        <mxCell id="vVmq0rC3IvV-BaaW3TVv-5" value="Hogar" style="strokeWidth=1;shadow=0;dashed=0;align=center;html=1;shape=mxgraph.mockup.text.textBox;fontColor=#666666;align=left;fontSize=17;spacingLeft=4;spacingTop=-3;whiteSpace=wrap;strokeColor=#666666;mainText=" parent="J2UCvn-4iJ-qASJBO4F3-1" vertex="1">
          <mxGeometry x="350" y="190" width="80" height="30" as="geometry" />
        </mxCell>
        <mxCell id="vVmq0rC3IvV-BaaW3TVv-6" value="Outlet" style="strokeWidth=1;shadow=0;dashed=0;align=center;html=1;shape=mxgraph.mockup.text.textBox;fontColor=#666666;align=left;fontSize=17;spacingLeft=4;spacingTop=-3;whiteSpace=wrap;strokeColor=#666666;mainText=" parent="J2UCvn-4iJ-qASJBO4F3-1" vertex="1">
          <mxGeometry x="430" y="190" width="90" height="30" as="geometry" />
        </mxCell>
        <mxCell id="vVmq0rC3IvV-BaaW3TVv-9" value="" style="rounded=0;whiteSpace=wrap;html=1;" parent="J2UCvn-4iJ-qASJBO4F3-1" vertex="1">
          <mxGeometry x="820" y="190" width="40" height="30" as="geometry" />
        </mxCell>
        <mxCell id="vVmq0rC3IvV-BaaW3TVv-10" value="" style="html=1;verticalLabelPosition=bottom;labelBackgroundColor=#ffffff;verticalAlign=top;shadow=0;dashed=0;strokeWidth=2;shape=mxgraph.ios7.misc.more;strokeColor=#a0a0a0;" parent="J2UCvn-4iJ-qASJBO4F3-1" vertex="1">
          <mxGeometry x="828" y="195" width="20" height="20" as="geometry" />
        </mxCell>
        <mxCell id="vVmq0rC3IvV-BaaW3TVv-32" style="edgeStyle=orthogonalEdgeStyle;rounded=0;orthogonalLoop=1;jettySize=auto;html=1;exitX=0.5;exitY=1;exitDx=0;exitDy=0;" parent="J2UCvn-4iJ-qASJBO4F3-1" source="vVmq0rC3IvV-BaaW3TVv-9" target="vVmq0rC3IvV-BaaW3TVv-9" edge="1">
          <mxGeometry relative="1" as="geometry" />
        </mxCell>
        <mxCell id="vVmq0rC3IvV-BaaW3TVv-36" value="ContÃ¡ctanos" style="strokeWidth=1;shadow=0;dashed=0;align=center;html=1;shape=mxgraph.mockup.text.textBox;fontColor=#666666;align=left;fontSize=17;spacingLeft=4;spacingTop=-3;whiteSpace=wrap;strokeColor=#666666;mainText=" parent="J2UCvn-4iJ-qASJBO4F3-1" vertex="1">
          <mxGeometry x="670" y="190" width="150" height="30" as="geometry" />
        </mxCell>
        <mxCell id="vVmq0rC3IvV-BaaW3TVv-38" value="&lt;font style=&quot;font-size: 24px;&quot;&gt;Productos Destacados&lt;/font&gt;" style="text;strokeColor=none;fillColor=none;html=1;fontSize=24;fontStyle=1;verticalAlign=middle;align=center;" parent="J2UCvn-4iJ-qASJBO4F3-1" vertex="1">
          <mxGeometry x="560" y="300" width="240" height="49" as="geometry" />
        </mxCell>
        <mxCell id="vVmq0rC3IvV-BaaW3TVv-44" value="Some quick example text to build on the card title and make up the bulk of the card&#39;s content." style="html=1;shadow=0;dashed=0;shape=mxgraph.bootstrap.rrect;rSize=5;strokeColor=#DFDFDF;html=1;whiteSpace=wrap;fillColor=#ffffff;fontColor=#000000;verticalAlign=bottom;align=left;spacing=20;fontSize=14;" parent="J2UCvn-4iJ-qASJBO4F3-1" vertex="1">
          <mxGeometry x="404" y="390" width="250" height="260" as="geometry" />
        </mxCell>
        <mxCell id="vVmq0rC3IvV-BaaW3TVv-45" value="Image cap" style="html=1;shadow=0;dashed=0;shape=mxgraph.bootstrap.topButton;rSize=5;perimeter=none;whiteSpace=wrap;fillColor=#868E96;strokeColor=#DFDFDF;fontColor=#DEE2E6;resizeWidth=1;fontSize=18;" parent="vVmq0rC3IvV-BaaW3TVv-44" vertex="1">
          <mxGeometry width="250" height="180" relative="1" as="geometry" />
        </mxCell>
        <mxCell id="vVmq0rC3IvV-BaaW3TVv-46" value="Some quick example text to build on the card title and make up the bulk of the card&#39;s content." style="html=1;shadow=0;dashed=0;shape=mxgraph.bootstrap.rrect;rSize=5;strokeColor=#DFDFDF;html=1;whiteSpace=wrap;fillColor=#ffffff;fontColor=#000000;verticalAlign=bottom;align=left;spacing=20;fontSize=14;" parent="J2UCvn-4iJ-qASJBO4F3-1" vertex="1">
          <mxGeometry x="700" y="390" width="250" height="260" as="geometry" />
        </mxCell>
        <mxCell id="vVmq0rC3IvV-BaaW3TVv-47" value="Image cap" style="html=1;shadow=0;dashed=0;shape=mxgraph.bootstrap.topButton;rSize=5;perimeter=none;whiteSpace=wrap;fillColor=#868E96;strokeColor=#DFDFDF;fontColor=#DEE2E6;resizeWidth=1;fontSize=18;" parent="vVmq0rC3IvV-BaaW3TVv-46" vertex="1">
          <mxGeometry width="250" height="180" relative="1" as="geometry" />
        </mxCell>
        <mxCell id="vVmq0rC3IvV-BaaW3TVv-48" value="Some quick example text to build on the card title and make up the bulk of the card&#39;s content." style="html=1;shadow=0;dashed=0;shape=mxgraph.bootstrap.rrect;rSize=5;strokeColor=#DFDFDF;html=1;whiteSpace=wrap;fillColor=#ffffff;fontColor=#000000;verticalAlign=bottom;align=left;spacing=20;fontSize=14;" parent="J2UCvn-4iJ-qASJBO4F3-1" vertex="1">
          <mxGeometry x="1000" y="390" width="250" height="260" as="geometry" />
        </mxCell>
        <mxCell id="vVmq0rC3IvV-BaaW3TVv-49" value="Image cap" style="html=1;shadow=0;dashed=0;shape=mxgraph.bootstrap.topButton;rSize=5;perimeter=none;whiteSpace=wrap;fillColor=#868E96;strokeColor=#DFDFDF;fontColor=#DEE2E6;resizeWidth=1;fontSize=18;" parent="vVmq0rC3IvV-BaaW3TVv-48" vertex="1">
          <mxGeometry width="250" height="180" relative="1" as="geometry" />
        </mxCell>
        <mxCell id="vVmq0rC3IvV-BaaW3TVv-54" value="Some quick example text to build on the card title and make up the bulk of the card&#39;s content." style="html=1;shadow=0;dashed=0;shape=mxgraph.bootstrap.rrect;rSize=5;strokeColor=#DFDFDF;html=1;whiteSpace=wrap;fillColor=#ffffff;fontColor=#000000;verticalAlign=bottom;align=left;spacing=20;fontSize=14;" parent="J2UCvn-4iJ-qASJBO4F3-1" vertex="1">
          <mxGeometry x="993" y="680" width="250" height="260" as="geometry" />
        </mxCell>
        <mxCell id="vVmq0rC3IvV-BaaW3TVv-55" value="Image cap" style="html=1;shadow=0;dashed=0;shape=mxgraph.bootstrap.topButton;rSize=5;perimeter=none;whiteSpace=wrap;fillColor=#868E96;strokeColor=#DFDFDF;fontColor=#DEE2E6;resizeWidth=1;fontSize=18;" parent="vVmq0rC3IvV-BaaW3TVv-54" vertex="1">
          <mxGeometry width="250" height="180" relative="1" as="geometry" />
        </mxCell>
        <mxCell id="vVmq0rC3IvV-BaaW3TVv-52" value="Some quick example text to build on the card title and make up the bulk of the card&#39;s content." style="html=1;shadow=0;dashed=0;shape=mxgraph.bootstrap.rrect;rSize=5;strokeColor=#DFDFDF;html=1;whiteSpace=wrap;fillColor=#ffffff;fontColor=#000000;verticalAlign=bottom;align=left;spacing=20;fontSize=14;" parent="J2UCvn-4iJ-qASJBO4F3-1" vertex="1">
          <mxGeometry x="693" y="680" width="250" height="260" as="geometry" />
        </mxCell>
        <mxCell id="vVmq0rC3IvV-BaaW3TVv-53" value="Image cap" style="html=1;shadow=0;dashed=0;shape=mxgraph.bootstrap.topButton;rSize=5;perimeter=none;whiteSpace=wrap;fillColor=#868E96;strokeColor=#DFDFDF;fontColor=#DEE2E6;resizeWidth=1;fontSize=18;" parent="vVmq0rC3IvV-BaaW3TVv-52" vertex="1">
          <mxGeometry width="250" height="180" relative="1" as="geometry" />
        </mxCell>
        <mxCell id="vVmq0rC3IvV-BaaW3TVv-50" value="Some quick example text to build on the card title and make up the bulk of the card&#39;s content." style="html=1;shadow=0;dashed=0;shape=mxgraph.bootstrap.rrect;rSize=5;strokeColor=#DFDFDF;html=1;whiteSpace=wrap;fillColor=#ffffff;fontColor=#000000;verticalAlign=bottom;align=left;spacing=20;fontSize=14;" parent="J2UCvn-4iJ-qASJBO4F3-1" vertex="1">
          <mxGeometry x="397" y="680" width="250" height="260" as="geometry" />
        </mxCell>
        <mxCell id="vVmq0rC3IvV-BaaW3TVv-51" value="Image cap" style="html=1;shadow=0;dashed=0;shape=mxgraph.bootstrap.topButton;rSize=5;perimeter=none;whiteSpace=wrap;fillColor=#868E96;strokeColor=#DFDFDF;fontColor=#DEE2E6;resizeWidth=1;fontSize=18;" parent="vVmq0rC3IvV-BaaW3TVv-50" vertex="1">
          <mxGeometry width="250" height="180" relative="1" as="geometry" />
        </mxCell>
        <mxCell id="vVmq0rC3IvV-BaaW3TVv-56" value="&lt;font style=&quot;font-size: 24px;&quot;&gt;Ofertas&lt;br&gt;&lt;/font&gt;" style="text;strokeColor=none;fillColor=none;html=1;fontSize=24;fontStyle=1;verticalAlign=middle;align=center;" parent="J2UCvn-4iJ-qASJBO4F3-1" vertex="1">
          <mxGeometry x="605" y="1030" width="150" height="49" as="geometry" />
        </mxCell>
        <mxCell id="vVmq0rC3IvV-BaaW3TVv-60" value="Some quick example text to build on the card title and make up the bulk of the card&#39;s content." style="html=1;shadow=0;dashed=0;shape=mxgraph.bootstrap.rrect;rSize=5;strokeColor=#DFDFDF;html=1;whiteSpace=wrap;fillColor=#ffffff;fontColor=#000000;verticalAlign=bottom;align=left;spacing=20;fontSize=14;" parent="J2UCvn-4iJ-qASJBO4F3-1" vertex="1">
          <mxGeometry x="700" y="1100" width="250" height="260" as="geometry" />
        </mxCell>
        <mxCell id="vVmq0rC3IvV-BaaW3TVv-61" value="Image cap" style="html=1;shadow=0;dashed=0;shape=mxgraph.bootstrap.topButton;rSize=5;perimeter=none;whiteSpace=wrap;fillColor=#868E96;strokeColor=#DFDFDF;fontColor=#DEE2E6;resizeWidth=1;fontSize=18;" parent="vVmq0rC3IvV-BaaW3TVv-60" vertex="1">
          <mxGeometry width="250" height="180" relative="1" as="geometry" />
        </mxCell>
        <mxCell id="vVmq0rC3IvV-BaaW3TVv-62" value="Some quick example text to build on the card title and make up the bulk of the card&#39;s content." style="html=1;shadow=0;dashed=0;shape=mxgraph.bootstrap.rrect;rSize=5;strokeColor=#DFDFDF;html=1;whiteSpace=wrap;fillColor=#ffffff;fontColor=#000000;verticalAlign=bottom;align=left;spacing=20;fontSize=14;" parent="J2UCvn-4iJ-qASJBO4F3-1" vertex="1">
          <mxGeometry x="1000" y="1100" width="250" height="260" as="geometry" />
        </mxCell>
        <mxCell id="vVmq0rC3IvV-BaaW3TVv-63" value="Image cap" style="html=1;shadow=0;dashed=0;shape=mxgraph.bootstrap.topButton;rSize=5;perimeter=none;whiteSpace=wrap;fillColor=#868E96;strokeColor=#DFDFDF;fontColor=#DEE2E6;resizeWidth=1;fontSize=18;" parent="vVmq0rC3IvV-BaaW3TVv-62" vertex="1">
          <mxGeometry width="250" height="180" relative="1" as="geometry" />
        </mxCell>
        <mxCell id="vVmq0rC3IvV-BaaW3TVv-68" value="Some quick example text to build on the card title and make up the bulk of the card&#39;s content." style="html=1;shadow=0;dashed=0;shape=mxgraph.bootstrap.rrect;rSize=5;strokeColor=#DFDFDF;html=1;whiteSpace=wrap;fillColor=#ffffff;fontColor=#000000;verticalAlign=bottom;align=left;spacing=20;fontSize=14;" parent="J2UCvn-4iJ-qASJBO4F3-1" vertex="1">
          <mxGeometry x="1000" y="1410" width="250" height="260" as="geometry" />
        </mxCell>
        <mxCell id="vVmq0rC3IvV-BaaW3TVv-69" value="Image cap" style="html=1;shadow=0;dashed=0;shape=mxgraph.bootstrap.topButton;rSize=5;perimeter=none;whiteSpace=wrap;fillColor=#868E96;strokeColor=#DFDFDF;fontColor=#DEE2E6;resizeWidth=1;fontSize=18;" parent="vVmq0rC3IvV-BaaW3TVv-68" vertex="1">
          <mxGeometry width="250" height="180" relative="1" as="geometry" />
        </mxCell>
        <mxCell id="vVmq0rC3IvV-BaaW3TVv-66" value="Some quick example text to build on the card title and make up the bulk of the card&#39;s content." style="html=1;shadow=0;dashed=0;shape=mxgraph.bootstrap.rrect;rSize=5;strokeColor=#DFDFDF;html=1;whiteSpace=wrap;fillColor=#ffffff;fontColor=#000000;verticalAlign=bottom;align=left;spacing=20;fontSize=14;" parent="J2UCvn-4iJ-qASJBO4F3-1" vertex="1">
          <mxGeometry x="700" y="1410" width="250" height="260" as="geometry" />
        </mxCell>
        <mxCell id="vVmq0rC3IvV-BaaW3TVv-67" value="Image cap" style="html=1;shadow=0;dashed=0;shape=mxgraph.bootstrap.topButton;rSize=5;perimeter=none;whiteSpace=wrap;fillColor=#868E96;strokeColor=#DFDFDF;fontColor=#DEE2E6;resizeWidth=1;fontSize=18;" parent="vVmq0rC3IvV-BaaW3TVv-66" vertex="1">
          <mxGeometry width="250" height="180" relative="1" as="geometry" />
        </mxCell>
        <mxCell id="vVmq0rC3IvV-BaaW3TVv-64" value="Some quick example text to build on the card title and make up the bulk of the card&#39;s content." style="html=1;shadow=0;dashed=0;shape=mxgraph.bootstrap.rrect;rSize=5;strokeColor=#DFDFDF;html=1;whiteSpace=wrap;fillColor=#ffffff;fontColor=#000000;verticalAlign=bottom;align=left;spacing=20;fontSize=14;" parent="J2UCvn-4iJ-qASJBO4F3-1" vertex="1">
          <mxGeometry x="404" y="1410" width="250" height="260" as="geometry" />
        </mxCell>
        <mxCell id="vVmq0rC3IvV-BaaW3TVv-65" value="Image cap" style="html=1;shadow=0;dashed=0;shape=mxgraph.bootstrap.topButton;rSize=5;perimeter=none;whiteSpace=wrap;fillColor=#868E96;strokeColor=#DFDFDF;fontColor=#DEE2E6;resizeWidth=1;fontSize=18;" parent="vVmq0rC3IvV-BaaW3TVv-64" vertex="1">
          <mxGeometry width="250" height="180" relative="1" as="geometry" />
        </mxCell>
        <mxCell id="vVmq0rC3IvV-BaaW3TVv-70" value="&lt;font style=&quot;font-size: 24px;&quot;&gt;Nueva Mercancia&lt;br&gt;&lt;/font&gt;" style="text;strokeColor=none;fillColor=none;html=1;fontSize=24;fontStyle=1;verticalAlign=middle;align=center;" parent="J2UCvn-4iJ-qASJBO4F3-1" vertex="1">
          <mxGeometry x="560" y="1750" width="180" height="49" as="geometry" />
        </mxCell>
        <mxCell id="vVmq0rC3IvV-BaaW3TVv-71" value="" style="endArrow=none;html=1;rounded=0;" parent="J2UCvn-4iJ-qASJBO4F3-1" edge="1">
          <mxGeometry relative="1" as="geometry">
            <mxPoint x="770" y="1770" as="sourcePoint" />
            <mxPoint x="1260" y="1770" as="targetPoint" />
          </mxGeometry>
        </mxCell>
        <mxCell id="vVmq0rC3IvV-BaaW3TVv-72" value="Some quick example text to build on the card title and make up the bulk of the card&#39;s content." style="html=1;shadow=0;dashed=0;shape=mxgraph.bootstrap.rrect;rSize=5;strokeColor=#DFDFDF;html=1;whiteSpace=wrap;fillColor=#ffffff;fontColor=#000000;verticalAlign=bottom;align=left;spacing=20;fontSize=14;" parent="J2UCvn-4iJ-qASJBO4F3-1" vertex="1">
          <mxGeometry x="400" y="1830" width="250" height="260" as="geometry" />
        </mxCell>
        <mxCell id="vVmq0rC3IvV-BaaW3TVv-73" value="Image cap" style="html=1;shadow=0;dashed=0;shape=mxgraph.bootstrap.topButton;rSize=5;perimeter=none;whiteSpace=wrap;fillColor=#868E96;strokeColor=#DFDFDF;fontColor=#DEE2E6;resizeWidth=1;fontSize=18;" parent="vVmq0rC3IvV-BaaW3TVv-72" vertex="1">
          <mxGeometry width="250" height="180" relative="1" as="geometry" />
        </mxCell>
        <mxCell id="vVmq0rC3IvV-BaaW3TVv-74" value="Some quick example text to build on the card title and make up the bulk of the card&#39;s content." style="html=1;shadow=0;dashed=0;shape=mxgraph.bootstrap.rrect;rSize=5;strokeColor=#DFDFDF;html=1;whiteSpace=wrap;fillColor=#ffffff;fontColor=#000000;verticalAlign=bottom;align=left;spacing=20;fontSize=14;" parent="J2UCvn-4iJ-qASJBO4F3-1" vertex="1">
          <mxGeometry x="696" y="1830" width="250" height="260" as="geometry" />
        </mxCell>
        <mxCell id="vVmq0rC3IvV-BaaW3TVv-75" value="Image cap" style="html=1;shadow=0;dashed=0;shape=mxgraph.bootstrap.topButton;rSize=5;perimeter=none;whiteSpace=wrap;fillColor=#868E96;strokeColor=#DFDFDF;fontColor=#DEE2E6;resizeWidth=1;fontSize=18;" parent="vVmq0rC3IvV-BaaW3TVv-74" vertex="1">
          <mxGeometry width="250" height="180" relative="1" as="geometry" />
        </mxCell>
        <mxCell id="vVmq0rC3IvV-BaaW3TVv-76" value="Some quick example text to build on the card title and make up the bulk of the card&#39;s content." style="html=1;shadow=0;dashed=0;shape=mxgraph.bootstrap.rrect;rSize=5;strokeColor=#DFDFDF;html=1;whiteSpace=wrap;fillColor=#ffffff;fontColor=#000000;verticalAlign=bottom;align=left;spacing=20;fontSize=14;" parent="J2UCvn-4iJ-qASJBO4F3-1" vertex="1">
          <mxGeometry x="996" y="1830" width="250" height="260" as="geometry" />
        </mxCell>
        <mxCell id="vVmq0rC3IvV-BaaW3TVv-77" value="Image cap" style="html=1;shadow=0;dashed=0;shape=mxgraph.bootstrap.topButton;rSize=5;perimeter=none;whiteSpace=wrap;fillColor=#868E96;strokeColor=#DFDFDF;fontColor=#DEE2E6;resizeWidth=1;fontSize=18;" parent="vVmq0rC3IvV-BaaW3TVv-76" vertex="1">
          <mxGeometry width="250" height="180" relative="1" as="geometry" />
        </mxCell>
        <mxCell id="vVmq0rC3IvV-BaaW3TVv-82" value="Some quick example text to build on the card title and make up the bulk of the card&#39;s content." style="html=1;shadow=0;dashed=0;shape=mxgraph.bootstrap.rrect;rSize=5;strokeColor=#DFDFDF;html=1;whiteSpace=wrap;fillColor=#ffffff;fontColor=#000000;verticalAlign=bottom;align=left;spacing=20;fontSize=14;" parent="J2UCvn-4iJ-qASJBO4F3-1" vertex="1">
          <mxGeometry x="996" y="2110" width="250" height="260" as="geometry" />
        </mxCell>
        <mxCell id="vVmq0rC3IvV-BaaW3TVv-83" value="Image cap" style="html=1;shadow=0;dashed=0;shape=mxgraph.bootstrap.topButton;rSize=5;perimeter=none;whiteSpace=wrap;fillColor=#868E96;strokeColor=#DFDFDF;fontColor=#DEE2E6;resizeWidth=1;fontSize=18;" parent="vVmq0rC3IvV-BaaW3TVv-82" vertex="1">
          <mxGeometry width="250" height="180" relative="1" as="geometry" />
        </mxCell>
        <mxCell id="vVmq0rC3IvV-BaaW3TVv-80" value="Some quick example text to build on the card title and make up the bulk of the card&#39;s content." style="html=1;shadow=0;dashed=0;shape=mxgraph.bootstrap.rrect;rSize=5;strokeColor=#DFDFDF;html=1;whiteSpace=wrap;fillColor=#ffffff;fontColor=#000000;verticalAlign=bottom;align=left;spacing=20;fontSize=14;" parent="J2UCvn-4iJ-qASJBO4F3-1" vertex="1">
          <mxGeometry x="696" y="2110" width="250" height="260" as="geometry" />
        </mxCell>
        <mxCell id="vVmq0rC3IvV-BaaW3TVv-81" value="Image cap" style="html=1;shadow=0;dashed=0;shape=mxgraph.bootstrap.topButton;rSize=5;perimeter=none;whiteSpace=wrap;fillColor=#868E96;strokeColor=#DFDFDF;fontColor=#DEE2E6;resizeWidth=1;fontSize=18;" parent="vVmq0rC3IvV-BaaW3TVv-80" vertex="1">
          <mxGeometry width="250" height="180" relative="1" as="geometry" />
        </mxCell>
        <mxCell id="vVmq0rC3IvV-BaaW3TVv-78" value="Some quick example text to build on the card title and make up the bulk of the card&#39;s content." style="html=1;shadow=0;dashed=0;shape=mxgraph.bootstrap.rrect;rSize=5;strokeColor=#DFDFDF;html=1;whiteSpace=wrap;fillColor=#ffffff;fontColor=#000000;verticalAlign=bottom;align=left;spacing=20;fontSize=14;" parent="J2UCvn-4iJ-qASJBO4F3-1" vertex="1">
          <mxGeometry x="400" y="2110" width="250" height="260" as="geometry" />
        </mxCell>
        <mxCell id="vVmq0rC3IvV-BaaW3TVv-79" value="Image cap" style="html=1;shadow=0;dashed=0;shape=mxgraph.bootstrap.topButton;rSize=5;perimeter=none;whiteSpace=wrap;fillColor=#868E96;strokeColor=#DFDFDF;fontColor=#DEE2E6;resizeWidth=1;fontSize=18;" parent="vVmq0rC3IvV-BaaW3TVv-78" vertex="1">
          <mxGeometry width="250" height="180" relative="1" as="geometry" />
        </mxCell>
        <mxCell id="vVmq0rC3IvV-BaaW3TVv-88" value="" style="verticalLabelPosition=bottom;shadow=0;dashed=0;align=center;html=1;verticalAlign=top;strokeWidth=1;shape=mxgraph.mockup.misc.shoppingCart;strokeColor=#999999;" parent="J2UCvn-4iJ-qASJBO4F3-1" vertex="1">
          <mxGeometry x="1280" y="140" width="50" height="50" as="geometry" />
        </mxCell>
        <mxCell id="vVmq0rC3IvV-BaaW3TVv-159" value="&lt;&lt; Prev 1 2 3 4 5 6 7 8 9 10 Next &gt;&gt;" style="strokeWidth=1;shadow=0;dashed=0;align=center;html=1;shape=mxgraph.mockup.navigation.pagination;linkText=;fontSize=17;fontColor=#0000ff;fontStyle=4;" parent="J2UCvn-4iJ-qASJBO4F3-1" vertex="1">
          <mxGeometry x="490" y="1700" width="350" height="30" as="geometry" />
        </mxCell>
        <mxCell id="vVmq0rC3IvV-BaaW3TVv-160" value="&lt;&lt; Prev 1 2 3 4 5 6 7 8 9 10 Next &gt;&gt;" style="strokeWidth=1;shadow=0;dashed=0;align=center;html=1;shape=mxgraph.mockup.navigation.pagination;linkText=;fontSize=17;fontColor=#0000ff;fontStyle=4;" parent="J2UCvn-4iJ-qASJBO4F3-1" vertex="1">
          <mxGeometry x="505" y="980" width="350" height="30" as="geometry" />
        </mxCell>
        <mxCell id="vVmq0rC3IvV-BaaW3TVv-161" value="&lt;&lt; Prev 1 2 3 4 5 6 7 8 9 10 Next &gt;&gt;" style="strokeWidth=1;shadow=0;dashed=0;align=center;html=1;shape=mxgraph.mockup.navigation.pagination;linkText=;fontSize=17;fontColor=#0000ff;fontStyle=4;" parent="J2UCvn-4iJ-qASJBO4F3-1" vertex="1">
          <mxGeometry x="490" y="2400" width="350" height="30" as="geometry" />
        </mxCell>
        <mxCell id="vVmq0rC3IvV-BaaW3TVv-165" value="&lt;font style=&quot;&quot;&gt;&lt;font style=&quot;font-size: 14px;&quot;&gt;Te gustaria recibirlals ? Registrate ahora y comenza a disfrutarlas!&lt;/font&gt;&lt;br&gt;&lt;/font&gt;" style="text;strokeColor=none;fillColor=none;html=1;fontSize=24;fontStyle=1;verticalAlign=middle;align=center;" parent="J2UCvn-4iJ-qASJBO4F3-1" vertex="1">
          <mxGeometry x="554" y="2520" width="180" height="49" as="geometry" />
        </mxCell>
        <mxCell id="vVmq0rC3IvV-BaaW3TVv-166" value="Email:" style="strokeWidth=1;shadow=0;dashed=0;align=center;html=1;shape=mxgraph.mockup.text.textBox;fontColor=#666666;align=left;fontSize=17;spacingLeft=4;spacingTop=-3;whiteSpace=wrap;strokeColor=#666666;mainText=" parent="J2UCvn-4iJ-qASJBO4F3-1" vertex="1">
          <mxGeometry x="287" y="2590" width="70" height="30" as="geometry" />
        </mxCell>
        <mxCell id="vVmq0rC3IvV-BaaW3TVv-168" value="" style="strokeWidth=1;shadow=0;dashed=0;align=center;html=1;shape=mxgraph.mockup.text.textBox;fontColor=#666666;align=left;fontSize=17;spacingLeft=4;spacingTop=-3;whiteSpace=wrap;strokeColor=#666666;mainText=" parent="J2UCvn-4iJ-qASJBO4F3-1" vertex="1">
          <mxGeometry x="357" y="2590" width="626" height="30" as="geometry" />
        </mxCell>
        <mxCell id="vVmq0rC3IvV-BaaW3TVv-169" value="Enviar" style="strokeWidth=1;shadow=0;dashed=0;align=center;html=1;shape=mxgraph.mockup.buttons.button;strokeColor=#666666;fontColor=#ffffff;mainText=;buttonStyle=round;fontSize=17;fontStyle=1;fillColor=#008cff;whiteSpace=wrap;" parent="J2UCvn-4iJ-qASJBO4F3-1" vertex="1">
          <mxGeometry x="575" y="2670" width="150" height="50" as="geometry" />
        </mxCell>
        <mxCell id="vVmq0rC3IvV-BaaW3TVv-172" value="Search" style="strokeWidth=1;shadow=0;dashed=0;align=center;html=1;shape=mxgraph.mockup.forms.searchBox;strokeColor=#999999;mainText=;strokeColor2=#008cff;fontColor=#666666;fontSize=17;align=left;spacingLeft=3;whiteSpace=wrap;" parent="J2UCvn-4iJ-qASJBO4F3-1" vertex="1">
          <mxGeometry x="860" y="190" width="550" height="30" as="geometry" />
        </mxCell>
        <mxCell id="vVmq0rC3IvV-BaaW3TVv-173" value="" style="sketch=0;outlineConnect=0;fontColor=#232F3E;gradientColor=none;fillColor=#ED7100;strokeColor=none;dashed=0;verticalLabelPosition=bottom;verticalAlign=top;align=center;html=1;fontSize=12;fontStyle=0;aspect=fixed;pointerEvents=1;shape=mxgraph.aws4.container_registry_image;" parent="J2UCvn-4iJ-qASJBO4F3-1" vertex="1">
          <mxGeometry x="559" y="2870" width="48" height="48" as="geometry" />
        </mxCell>
        <mxCell id="vVmq0rC3IvV-BaaW3TVv-175" value="&lt;font style=&quot;font-size: 24px;&quot;&gt;Medios de Pago&lt;br&gt;&lt;/font&gt;" style="text;strokeColor=none;fillColor=none;html=1;fontSize=24;fontStyle=1;verticalAlign=middle;align=center;" parent="J2UCvn-4iJ-qASJBO4F3-1" vertex="1">
          <mxGeometry x="554" y="2800" width="180" height="49" as="geometry" />
        </mxCell>
        <mxCell id="vVmq0rC3IvV-BaaW3TVv-177" value="" style="sketch=0;outlineConnect=0;fontColor=#232F3E;gradientColor=none;fillColor=#ED7100;strokeColor=none;dashed=0;verticalLabelPosition=bottom;verticalAlign=top;align=center;html=1;fontSize=12;fontStyle=0;aspect=fixed;pointerEvents=1;shape=mxgraph.aws4.container_registry_image;" parent="J2UCvn-4iJ-qASJBO4F3-1" vertex="1">
          <mxGeometry x="610" y="2870" width="48" height="48" as="geometry" />
        </mxCell>
        <mxCell id="vVmq0rC3IvV-BaaW3TVv-178" value="" style="sketch=0;outlineConnect=0;fontColor=#232F3E;gradientColor=none;fillColor=#ED7100;strokeColor=none;dashed=0;verticalLabelPosition=bottom;verticalAlign=top;align=center;html=1;fontSize=12;fontStyle=0;aspect=fixed;pointerEvents=1;shape=mxgraph.aws4.container_registry_image;" parent="J2UCvn-4iJ-qASJBO4F3-1" vertex="1">
          <mxGeometry x="655" y="2870" width="48" height="48" as="geometry" />
        </mxCell>
        <mxCell id="vVmq0rC3IvV-BaaW3TVv-179" value="" style="sketch=0;outlineConnect=0;fontColor=#232F3E;gradientColor=none;fillColor=#ED7100;strokeColor=none;dashed=0;verticalLabelPosition=bottom;verticalAlign=top;align=center;html=1;fontSize=12;fontStyle=0;aspect=fixed;pointerEvents=1;shape=mxgraph.aws4.container_registry_image;" parent="J2UCvn-4iJ-qASJBO4F3-1" vertex="1">
          <mxGeometry x="703" y="2870" width="48" height="48" as="geometry" />
        </mxCell>
        <mxCell id="vVmq0rC3IvV-BaaW3TVv-180" value="" style="sketch=0;outlineConnect=0;fontColor=#232F3E;gradientColor=none;fillColor=#ED7100;strokeColor=none;dashed=0;verticalLabelPosition=bottom;verticalAlign=top;align=center;html=1;fontSize=12;fontStyle=0;aspect=fixed;pointerEvents=1;shape=mxgraph.aws4.container_registry_image;" parent="J2UCvn-4iJ-qASJBO4F3-1" vertex="1">
          <mxGeometry x="463" y="2870" width="48" height="48" as="geometry" />
        </mxCell>
        <mxCell id="vVmq0rC3IvV-BaaW3TVv-181" value="" style="sketch=0;outlineConnect=0;fontColor=#232F3E;gradientColor=none;fillColor=#ED7100;strokeColor=none;dashed=0;verticalLabelPosition=bottom;verticalAlign=top;align=center;html=1;fontSize=12;fontStyle=0;aspect=fixed;pointerEvents=1;shape=mxgraph.aws4.container_registry_image;" parent="J2UCvn-4iJ-qASJBO4F3-1" vertex="1">
          <mxGeometry x="751" y="2870" width="48" height="48" as="geometry" />
        </mxCell>
        <mxCell id="vVmq0rC3IvV-BaaW3TVv-183" value="" style="sketch=0;outlineConnect=0;fontColor=#232F3E;gradientColor=none;fillColor=#ED7100;strokeColor=none;dashed=0;verticalLabelPosition=bottom;verticalAlign=top;align=center;html=1;fontSize=12;fontStyle=0;aspect=fixed;pointerEvents=1;shape=mxgraph.aws4.container_registry_image;" parent="J2UCvn-4iJ-qASJBO4F3-1" vertex="1">
          <mxGeometry x="797" y="2870" width="48" height="48" as="geometry" />
        </mxCell>
        <mxCell id="vVmq0rC3IvV-BaaW3TVv-174" value="&lt;font style=&quot;font-size: 24px;&quot;&gt;Recibi todas nuestras promos y ofertas!&lt;br&gt;&lt;/font&gt;" style="text;strokeColor=none;fillColor=none;html=1;fontSize=24;fontStyle=1;verticalAlign=middle;align=center;" parent="J2UCvn-4iJ-qASJBO4F3-1" vertex="1">
          <mxGeometry x="545" y="2480" width="180" height="49" as="geometry" />
        </mxCell>
        <mxCell id="vVmq0rC3IvV-BaaW3TVv-185" value="" style="sketch=0;outlineConnect=0;fontColor=#232F3E;gradientColor=none;fillColor=#ED7100;strokeColor=none;dashed=0;verticalLabelPosition=bottom;verticalAlign=top;align=center;html=1;fontSize=12;fontStyle=0;aspect=fixed;pointerEvents=1;shape=mxgraph.aws4.container_registry_image;" parent="J2UCvn-4iJ-qASJBO4F3-1" vertex="1">
          <mxGeometry x="511" y="2870" width="48" height="48" as="geometry" />
        </mxCell>
        <mxCell id="vVmq0rC3IvV-BaaW3TVv-186" value="" style="verticalLabelPosition=bottom;html=1;verticalAlign=top;align=center;strokeColor=none;fillColor=#00BEF2;shape=mxgraph.azure.azure_marketplace;" parent="J2UCvn-4iJ-qASJBO4F3-1" vertex="1">
          <mxGeometry x="575" y="3050" width="90" height="80" as="geometry" />
        </mxCell>
        <mxCell id="vVmq0rC3IvV-BaaW3TVv-191" value="EnvÃ­os" style="strokeWidth=1;shadow=0;dashed=0;align=center;html=1;shape=mxgraph.mockup.text.textBox;fontColor=#666666;align=left;fontSize=17;spacingLeft=4;spacingTop=-3;whiteSpace=wrap;strokeColor=#666666;mainText=" parent="J2UCvn-4iJ-qASJBO4F3-1" vertex="1">
          <mxGeometry x="595" y="190" width="80" height="30" as="geometry" />
        </mxCell>
        <mxCell id="qfARsuez2wvKkOPSgrlR-4" value="Some quick example text to build on the card title and make up the bulk of the card&#39;s content." style="html=1;shadow=0;dashed=0;shape=mxgraph.bootstrap.rrect;rSize=5;strokeColor=#DFDFDF;html=1;whiteSpace=wrap;fillColor=#ffffff;fontColor=#000000;verticalAlign=bottom;align=left;spacing=20;fontSize=14;" vertex="1" parent="J2UCvn-4iJ-qASJBO4F3-1">
          <mxGeometry x="130" y="390" width="250" height="260" as="geometry" />
        </mxCell>
        <mxCell id="qfARsuez2wvKkOPSgrlR-5" value="Image cap" style="html=1;shadow=0;dashed=0;shape=mxgraph.bootstrap.topButton;rSize=5;perimeter=none;whiteSpace=wrap;fillColor=#868E96;strokeColor=#DFDFDF;fontColor=#DEE2E6;resizeWidth=1;fontSize=18;" vertex="1" parent="qfARsuez2wvKkOPSgrlR-4">
          <mxGeometry width="250" height="180" relative="1" as="geometry" />
        </mxCell>
        <mxCell id="qfARsuez2wvKkOPSgrlR-6" value="Some quick example text to build on the card title and make up the bulk of the card&#39;s content." style="html=1;shadow=0;dashed=0;shape=mxgraph.bootstrap.rrect;rSize=5;strokeColor=#DFDFDF;html=1;whiteSpace=wrap;fillColor=#ffffff;fontColor=#000000;verticalAlign=bottom;align=left;spacing=20;fontSize=14;" vertex="1" parent="J2UCvn-4iJ-qASJBO4F3-1">
          <mxGeometry x="130" y="680" width="250" height="260" as="geometry" />
        </mxCell>
        <mxCell id="qfARsuez2wvKkOPSgrlR-7" value="Image cap" style="html=1;shadow=0;dashed=0;shape=mxgraph.bootstrap.topButton;rSize=5;perimeter=none;whiteSpace=wrap;fillColor=#868E96;strokeColor=#DFDFDF;fontColor=#DEE2E6;resizeWidth=1;fontSize=18;" vertex="1" parent="qfARsuez2wvKkOPSgrlR-6">
          <mxGeometry width="250" height="180" relative="1" as="geometry" />
        </mxCell>
        <mxCell id="qfARsuez2wvKkOPSgrlR-14" value="Some quick example text to build on the card title and make up the bulk of the card&#39;s content." style="html=1;shadow=0;dashed=0;shape=mxgraph.bootstrap.rrect;rSize=5;strokeColor=#DFDFDF;html=1;whiteSpace=wrap;fillColor=#ffffff;fontColor=#000000;verticalAlign=bottom;align=left;spacing=20;fontSize=14;" vertex="1" parent="J2UCvn-4iJ-qASJBO4F3-1">
          <mxGeometry x="130" y="1100" width="250" height="260" as="geometry" />
        </mxCell>
        <mxCell id="qfARsuez2wvKkOPSgrlR-15" value="Image cap" style="html=1;shadow=0;dashed=0;shape=mxgraph.bootstrap.topButton;rSize=5;perimeter=none;whiteSpace=wrap;fillColor=#868E96;strokeColor=#DFDFDF;fontColor=#DEE2E6;resizeWidth=1;fontSize=18;" vertex="1" parent="qfARsuez2wvKkOPSgrlR-14">
          <mxGeometry width="250" height="180" relative="1" as="geometry" />
        </mxCell>
        <mxCell id="qfARsuez2wvKkOPSgrlR-16" value="Some quick example text to build on the card title and make up the bulk of the card&#39;s content." style="html=1;shadow=0;dashed=0;shape=mxgraph.bootstrap.rrect;rSize=5;strokeColor=#DFDFDF;html=1;whiteSpace=wrap;fillColor=#ffffff;fontColor=#000000;verticalAlign=bottom;align=left;spacing=20;fontSize=14;" vertex="1" parent="J2UCvn-4iJ-qASJBO4F3-1">
          <mxGeometry x="410" y="1100" width="250" height="260" as="geometry" />
        </mxCell>
        <mxCell id="qfARsuez2wvKkOPSgrlR-17" value="Image cap" style="html=1;shadow=0;dashed=0;shape=mxgraph.bootstrap.topButton;rSize=5;perimeter=none;whiteSpace=wrap;fillColor=#868E96;strokeColor=#DFDFDF;fontColor=#DEE2E6;resizeWidth=1;fontSize=18;" vertex="1" parent="qfARsuez2wvKkOPSgrlR-16">
          <mxGeometry width="250" height="180" relative="1" as="geometry" />
        </mxCell>
        <mxCell id="vVmq0rC3IvV-BaaW3TVv-58" value="Some quick example text to build on the card title and make up the bulk of the card&#39;s content." style="html=1;shadow=0;dashed=0;shape=mxgraph.bootstrap.rrect;rSize=5;strokeColor=#DFDFDF;html=1;whiteSpace=wrap;fillColor=#ffffff;fontColor=#000000;verticalAlign=bottom;align=left;spacing=20;fontSize=14;" parent="J2UCvn-4iJ-qASJBO4F3-1" vertex="1">
          <mxGeometry x="130" y="1410" width="250" height="260" as="geometry" />
        </mxCell>
        <mxCell id="vVmq0rC3IvV-BaaW3TVv-59" value="Image cap" style="html=1;shadow=0;dashed=0;shape=mxgraph.bootstrap.topButton;rSize=5;perimeter=none;whiteSpace=wrap;fillColor=#868E96;strokeColor=#DFDFDF;fontColor=#DEE2E6;resizeWidth=1;fontSize=18;" parent="vVmq0rC3IvV-BaaW3TVv-58" vertex="1">
          <mxGeometry width="250" height="180" relative="1" as="geometry" />
        </mxCell>
        <mxCell id="qfARsuez2wvKkOPSgrlR-18" value="Some quick example text to build on the card title and make up the bulk of the card&#39;s content." style="html=1;shadow=0;dashed=0;shape=mxgraph.bootstrap.rrect;rSize=5;strokeColor=#DFDFDF;html=1;whiteSpace=wrap;fillColor=#ffffff;fontColor=#000000;verticalAlign=bottom;align=left;spacing=20;fontSize=14;" vertex="1" parent="J2UCvn-4iJ-qASJBO4F3-1">
          <mxGeometry x="120" y="1830" width="250" height="260" as="geometry" />
        </mxCell>
        <mxCell id="qfARsuez2wvKkOPSgrlR-19" value="Image cap" style="html=1;shadow=0;dashed=0;shape=mxgraph.bootstrap.topButton;rSize=5;perimeter=none;whiteSpace=wrap;fillColor=#868E96;strokeColor=#DFDFDF;fontColor=#DEE2E6;resizeWidth=1;fontSize=18;" vertex="1" parent="qfARsuez2wvKkOPSgrlR-18">
          <mxGeometry width="250" height="180" relative="1" as="geometry" />
        </mxCell>
        <mxCell id="qfARsuez2wvKkOPSgrlR-20" value="Some quick example text to build on the card title and make up the bulk of the card&#39;s content." style="html=1;shadow=0;dashed=0;shape=mxgraph.bootstrap.rrect;rSize=5;strokeColor=#DFDFDF;html=1;whiteSpace=wrap;fillColor=#ffffff;fontColor=#000000;verticalAlign=bottom;align=left;spacing=20;fontSize=14;" vertex="1" parent="J2UCvn-4iJ-qASJBO4F3-1">
          <mxGeometry x="120" y="2110" width="250" height="260" as="geometry" />
        </mxCell>
        <mxCell id="qfARsuez2wvKkOPSgrlR-21" value="Image cap" style="html=1;shadow=0;dashed=0;shape=mxgraph.bootstrap.topButton;rSize=5;perimeter=none;whiteSpace=wrap;fillColor=#868E96;strokeColor=#DFDFDF;fontColor=#DEE2E6;resizeWidth=1;fontSize=18;" vertex="1" parent="qfARsuez2wvKkOPSgrlR-20">
          <mxGeometry width="250" height="180" relative="1" as="geometry" />
        </mxCell>
        <mxCell id="qfARsuez2wvKkOPSgrlR-22" value="" style="endArrow=none;html=1;rounded=0;" edge="1" parent="J2UCvn-4iJ-qASJBO4F3-1">
          <mxGeometry relative="1" as="geometry">
            <mxPoint x="110" y="1770" as="sourcePoint" />
            <mxPoint x="542" y="1770" as="targetPoint" />
          </mxGeometry>
        </mxCell>
        <mxCell id="qfARsuez2wvKkOPSgrlR-23" value="" style="endArrow=none;html=1;rounded=0;fontStyle=1" edge="1" parent="J2UCvn-4iJ-qASJBO4F3-1">
          <mxGeometry relative="1" as="geometry">
            <mxPoint x="730" y="1060" as="sourcePoint" />
            <mxPoint x="1260" y="1060" as="targetPoint" />
          </mxGeometry>
        </mxCell>
        <mxCell id="qfARsuez2wvKkOPSgrlR-24" value="" style="endArrow=none;html=1;rounded=0;" edge="1" parent="J2UCvn-4iJ-qASJBO4F3-1">
          <mxGeometry relative="1" as="geometry">
            <mxPoint x="100" y="1060" as="sourcePoint" />
            <mxPoint x="630" y="1060" as="targetPoint" />
          </mxGeometry>
        </mxCell>
        <mxCell id="qfARsuez2wvKkOPSgrlR-25" value="" style="endArrow=none;html=1;rounded=0;" edge="1" parent="J2UCvn-4iJ-qASJBO4F3-1">
          <mxGeometry relative="1" as="geometry">
            <mxPoint x="820" y="330" as="sourcePoint" />
            <mxPoint x="1310" y="330" as="targetPoint" />
          </mxGeometry>
        </mxCell>
        <mxCell id="qfARsuez2wvKkOPSgrlR-27" value="" style="endArrow=none;html=1;rounded=0;" edge="1" parent="J2UCvn-4iJ-qASJBO4F3-1">
          <mxGeometry relative="1" as="geometry">
            <mxPoint x="52" y="330" as="sourcePoint" />
            <mxPoint x="542" y="330" as="targetPoint" />
          </mxGeometry>
        </mxCell>
        <mxCell id="qfARsuez2wvKkOPSgrlR-30" value="" style="endArrow=none;html=1;rounded=0;entryX=1.001;entryY=0.851;entryDx=0;entryDy=0;entryPerimeter=0;" edge="1" parent="J2UCvn-4iJ-qASJBO4F3-1" target="J2UCvn-4iJ-qASJBO4F3-1">
          <mxGeometry relative="1" as="geometry">
            <mxPoint y="2770" as="sourcePoint" />
            <mxPoint x="1640" y="2780" as="targetPoint" />
          </mxGeometry>
        </mxCell>
        <mxCell id="qfARsuez2wvKkOPSgrlR-33" value="&lt;font style=&quot;font-size: 24px;&quot;&gt;Necesitas de Nuestra ayuda?&lt;br&gt;&lt;br&gt;Horarios&lt;br&gt;&lt;br&gt;&lt;br&gt;Email&lt;br&gt;&lt;br&gt;Direccion&lt;br&gt;&lt;/font&gt;" style="text;strokeColor=none;fillColor=none;html=1;fontSize=24;fontStyle=1;verticalAlign=middle;align=left;" vertex="1" parent="J2UCvn-4iJ-qASJBO4F3-1">
          <mxGeometry x="961.5" y="2800" width="347" height="240" as="geometry" />
        </mxCell>
        <mxCell id="qfARsuez2wvKkOPSgrlR-34" value="&lt;font style=&quot;font-size: 24px;&quot;&gt;InformaciÃ³n&lt;br&gt;&lt;br&gt;Preguntas Frecuentes&lt;br&gt;&lt;br&gt;Sobre nuestra tienda&lt;br&gt;&lt;br&gt;&lt;br&gt;&lt;/font&gt;" style="text;strokeColor=none;fillColor=none;html=1;fontSize=24;fontStyle=1;verticalAlign=middle;align=left;" vertex="1" parent="J2UCvn-4iJ-qASJBO4F3-1">
          <mxGeometry x="33" y="2800" width="347" height="220" as="geometry" />
        </mxCell>
        <mxCell id="qfARsuez2wvKkOPSgrlR-36" value="" style="html=1;verticalLabelPosition=bottom;align=center;labelBackgroundColor=#ffffff;verticalAlign=top;strokeWidth=2;strokeColor=#0080F0;shadow=0;dashed=0;shape=mxgraph.ios7.icons.mail;" vertex="1" parent="J2UCvn-4iJ-qASJBO4F3-1">
          <mxGeometry x="745" y="3160.6" width="60" height="40" as="geometry" />
        </mxCell>
        <mxCell id="qfARsuez2wvKkOPSgrlR-37" value="" style="dashed=0;outlineConnect=0;html=1;align=center;labelPosition=center;verticalLabelPosition=bottom;verticalAlign=top;shape=mxgraph.weblogos.twitter;fillColor=#1DA1F2;strokeColor=none" vertex="1" parent="J2UCvn-4iJ-qASJBO4F3-1">
          <mxGeometry x="451" y="3160.6" width="60" height="40" as="geometry" />
        </mxCell>
        <mxCell id="qfARsuez2wvKkOPSgrlR-38" value="" style="shape=image;html=1;verticalAlign=top;verticalLabelPosition=bottom;labelBackgroundColor=#ffffff;imageAspect=0;aspect=fixed;image=https://cdn0.iconfinder.com/data/icons/social-network-9/50/3-128.png" vertex="1" parent="J2UCvn-4iJ-qASJBO4F3-1">
          <mxGeometry x="542" y="3150" width="58.5" height="58.5" as="geometry" />
        </mxCell>
        <mxCell id="qfARsuez2wvKkOPSgrlR-39" value="" style="dashed=0;outlineConnect=0;html=1;align=center;labelPosition=center;verticalLabelPosition=bottom;verticalAlign=top;shape=mxgraph.weblogos.instagram;fillColor=#6FC0E4;gradientColor=#1E305B" vertex="1" parent="J2UCvn-4iJ-qASJBO4F3-1">
          <mxGeometry x="647" y="3154.5" width="60" height="52.2" as="geometry" />
        </mxCell>
      </root>
    </mxGraphModel>
  </diagram>
  <diagram id="o1Y6AVatBu78uRucBnkL" name="PÃ¡gina-2">
    <mxGraphModel dx="1922" dy="1782" grid="1" gridSize="10" guides="1" tooltips="1" connect="1" arrows="1" fold="1" page="1" pageScale="1" pageWidth="1169" pageHeight="827" math="0" shadow="0">
      <root>
        <mxCell id="0" />
        <mxCell id="1" parent="0" />
        <mxCell id="0cetAtY3qcK3y_h9nXg2-1" value="" style="strokeWidth=1;shadow=0;dashed=0;align=center;html=1;shape=mxgraph.mockup.containers.browserWindow;rSize=0;strokeColor=#666666;strokeColor2=#008cff;strokeColor3=#c4c4c4;mainText=,;recursiveResize=0;" vertex="1" parent="1">
          <mxGeometry x="50" y="-110" width="1410" height="1450" as="geometry" />
        </mxCell>
        <mxCell id="0cetAtY3qcK3y_h9nXg2-2" value="Page 1" style="strokeWidth=1;shadow=0;dashed=0;align=center;html=1;shape=mxgraph.mockup.containers.anchor;fontSize=17;fontColor=#666666;align=left;whiteSpace=wrap;" vertex="1" parent="0cetAtY3qcK3y_h9nXg2-1">
          <mxGeometry x="60" y="12" width="110" height="26" as="geometry" />
        </mxCell>
        <mxCell id="0cetAtY3qcK3y_h9nXg2-3" value="https://www.draw.io" style="strokeWidth=1;shadow=0;dashed=0;align=center;html=1;shape=mxgraph.mockup.containers.anchor;rSize=0;fontSize=17;fontColor=#666666;align=left;" vertex="1" parent="0cetAtY3qcK3y_h9nXg2-1">
          <mxGeometry x="130" y="60" width="250" height="26" as="geometry" />
        </mxCell>
        <mxCell id="0cetAtY3qcK3y_h9nXg2-4" value="&lt;b&gt;Visita Nuestra Tienda:&lt;br&gt;&lt;/b&gt;&lt;br&gt;&lt;div style=&quot;text-align: left;&quot;&gt;DirecciÃ³n&lt;/div&gt;" style="strokeWidth=1;shadow=0;dashed=0;align=center;html=1;shape=mxgraph.mockup.text.stickyNote2;fontColor=#666666;mainText=;fontSize=17;whiteSpace=wrap;fillColor=#ffffcc;strokeColor=#F62E00;" vertex="1" parent="0cetAtY3qcK3y_h9nXg2-1">
          <mxGeometry x="80" y="380" width="230" height="200" as="geometry" />
        </mxCell>
        <mxCell id="0cetAtY3qcK3y_h9nXg2-5" value="&lt;b&gt;MÃ¡ndanos un Mail:&amp;nbsp;&lt;br&gt;&lt;/b&gt;&lt;br&gt;&lt;div style=&quot;text-align: left;&quot;&gt;Email&lt;/div&gt;" style="strokeWidth=1;shadow=0;dashed=0;align=center;html=1;shape=mxgraph.mockup.text.stickyNote2;fontColor=#666666;mainText=;fontSize=17;whiteSpace=wrap;fillColor=#ffffcc;strokeColor=#F62E00;" vertex="1" parent="0cetAtY3qcK3y_h9nXg2-1">
          <mxGeometry x="510" y="370" width="230" height="200" as="geometry" />
        </mxCell>
        <mxCell id="0cetAtY3qcK3y_h9nXg2-6" value="&lt;b&gt;Nuestros Horarios de AtenciÃ³n:&lt;br&gt;&lt;/b&gt;&lt;br&gt;&lt;div style=&quot;text-align: left;&quot;&gt;Horarios&lt;/div&gt;" style="strokeWidth=1;shadow=0;dashed=0;align=center;html=1;shape=mxgraph.mockup.text.stickyNote2;fontColor=#666666;mainText=;fontSize=17;whiteSpace=wrap;fillColor=#ffffcc;strokeColor=#F62E00;" vertex="1" parent="0cetAtY3qcK3y_h9nXg2-1">
          <mxGeometry x="940" y="380" width="230" height="200" as="geometry" />
        </mxCell>
        <mxCell id="0cetAtY3qcK3y_h9nXg2-8" value="john@jgraph.com" style="strokeWidth=1;shadow=0;dashed=0;align=center;html=1;shape=mxgraph.mockup.forms.rrect;fillColor=#ffffff;rSize=0;fontColor=#666666;align=left;spacingLeft=3;strokeColor=#999999;" vertex="1" parent="0cetAtY3qcK3y_h9nXg2-1">
          <mxGeometry x="100" y="760" width="500" height="18" as="geometry" />
        </mxCell>
        <mxCell id="0cetAtY3qcK3y_h9nXg2-7" value="From" style="strokeWidth=1;shadow=0;dashed=0;align=center;html=1;shape=mxgraph.mockup.forms.anchor;align=right;spacingRight=2;fontColor=#666666;" vertex="1" parent="0cetAtY3qcK3y_h9nXg2-1">
          <mxGeometry x="40" y="760" width="50" height="18" as="geometry" />
        </mxCell>
        <mxCell id="0cetAtY3qcK3y_h9nXg2-10" value="Greeting" style="strokeWidth=1;shadow=0;dashed=0;align=center;html=1;shape=mxgraph.mockup.forms.rrect;fillColor=#ffffff;rSize=0;fontColor=#666666;align=left;spacingLeft=3;strokeColor=#999999;" vertex="1" parent="0cetAtY3qcK3y_h9nXg2-1">
          <mxGeometry x="100" y="800" width="500" height="18" as="geometry" />
        </mxCell>
        <mxCell id="0cetAtY3qcK3y_h9nXg2-9" value="Subject" style="strokeWidth=1;shadow=0;dashed=0;align=center;html=1;shape=mxgraph.mockup.forms.anchor;align=right;spacingRight=2;fontColor=#666666;" vertex="1" parent="0cetAtY3qcK3y_h9nXg2-1">
          <mxGeometry x="40" y="800" width="50" height="18" as="geometry" />
        </mxCell>
        <mxCell id="0cetAtY3qcK3y_h9nXg2-12" value="fred@jgraph.com" style="strokeWidth=1;shadow=0;dashed=0;align=center;html=1;shape=mxgraph.mockup.forms.rrect;fillColor=#ffffff;rSize=0;fontColor=#666666;align=left;spacingLeft=3;strokeColor=#999999;" vertex="1" parent="0cetAtY3qcK3y_h9nXg2-1">
          <mxGeometry x="100" y="834" width="500" height="18" as="geometry" />
        </mxCell>
        <mxCell id="0cetAtY3qcK3y_h9nXg2-11" value="To" style="strokeWidth=1;shadow=0;dashed=0;align=center;html=1;shape=mxgraph.mockup.forms.anchor;align=right;spacingRight=2;fontColor=#666666;" vertex="1" parent="0cetAtY3qcK3y_h9nXg2-1">
          <mxGeometry x="40" y="834" width="50" height="18" as="geometry" />
        </mxCell>
        <mxCell id="0cetAtY3qcK3y_h9nXg2-14" value="" style="strokeWidth=1;shadow=0;dashed=0;align=center;html=1;shape=mxgraph.mockup.forms.rrect;fillColor=#ffffff;rSize=0;fontColor=#666666;align=left;spacingLeft=3;strokeColor=#999999;" vertex="1" parent="0cetAtY3qcK3y_h9nXg2-1">
          <mxGeometry x="100" y="870" width="500" height="18" as="geometry" />
        </mxCell>
        <mxCell id="0cetAtY3qcK3y_h9nXg2-15" value="BCC" style="strokeWidth=1;shadow=0;dashed=0;align=center;html=1;shape=mxgraph.mockup.forms.anchor;align=right;spacingRight=2;fontColor=#666666;" vertex="1" parent="0cetAtY3qcK3y_h9nXg2-1">
          <mxGeometry x="40" y="870" width="50" height="18" as="geometry" />
        </mxCell>
        <mxCell id="0cetAtY3qcK3y_h9nXg2-13" value="CC" style="strokeWidth=1;shadow=0;dashed=0;align=center;html=1;shape=mxgraph.mockup.forms.anchor;align=right;spacingRight=2;fontColor=#666666;" vertex="1" parent="0cetAtY3qcK3y_h9nXg2-1">
          <mxGeometry x="40" y="910" width="50" height="18" as="geometry" />
        </mxCell>
        <mxCell id="0cetAtY3qcK3y_h9nXg2-16" value="" style="strokeWidth=1;shadow=0;dashed=0;align=center;html=1;shape=mxgraph.mockup.forms.rrect;fillColor=#ffffff;rSize=0;fontColor=#666666;align=left;spacingLeft=3;strokeColor=#999999;" vertex="1" parent="0cetAtY3qcK3y_h9nXg2-1">
          <mxGeometry x="100" y="910" width="500" height="18" as="geometry" />
        </mxCell>
        <mxCell id="0cetAtY3qcK3y_h9nXg2-17" value="Lorem ipsum dolor sit amet, consectetur adipisicing elit, sed do eiusmod tempor incididunt ut labore et dolore magna aliqua. Ut enim ad minim veniam, quis nostrud exercitation ullamco laboris nisi ut aliquip ex ea commodo consequat. Duis aute irure dolor in reprehenderit in voluptate velit esse cillum dolore eu fugiat nulla pariatur. Excepteur sint occaecat cupidatat non proident, sunt in culpa qui officia deserunt mollit anim id est laborum." style="strokeWidth=1;shadow=0;dashed=0;align=center;html=1;shape=mxgraph.mockup.forms.rrect;fillColor=#ffffff;rSize=0;fontColor=#666666;align=left;spacingLeft=3;strokeColor=#999999;verticalAlign=top;whiteSpace=wrap;" vertex="1" parent="0cetAtY3qcK3y_h9nXg2-1">
          <mxGeometry x="60" y="950" width="540" height="170" as="geometry" />
        </mxCell>
        <mxCell id="0cetAtY3qcK3y_h9nXg2-19" value="Contactanos:" style="text;strokeColor=none;fillColor=none;html=1;fontSize=24;fontStyle=1;verticalAlign=middle;align=center;" vertex="1" parent="0cetAtY3qcK3y_h9nXg2-1">
          <mxGeometry x="70" y="624" width="100" height="40" as="geometry" />
        </mxCell>
        <mxCell id="0cetAtY3qcK3y_h9nXg2-20" value="&lt;font style=&quot;font-size: 12px; font-weight: normal;&quot;&gt;Nos pondremos en contacto contigo para solucionar todas tus dudas&lt;/font&gt;" style="text;strokeColor=none;fillColor=none;html=1;fontSize=24;fontStyle=1;verticalAlign=middle;align=left;" vertex="1" parent="0cetAtY3qcK3y_h9nXg2-1">
          <mxGeometry x="51" y="680" width="100" height="40" as="geometry" />
        </mxCell>
        <mxCell id="0cetAtY3qcK3y_h9nXg2-21" value="Seguinos en nuestras redes:" style="text;strokeColor=none;fillColor=none;html=1;fontSize=24;fontStyle=1;verticalAlign=middle;align=center;" vertex="1" parent="0cetAtY3qcK3y_h9nXg2-1">
          <mxGeometry x="170" y="1160" width="100" height="40" as="geometry" />
        </mxCell>
        <mxCell id="W749RNHQacZeZyzqG_Gk-1" value="" style="html=1;verticalLabelPosition=bottom;align=center;labelBackgroundColor=#ffffff;verticalAlign=top;strokeWidth=2;strokeColor=#0080F0;shadow=0;dashed=0;shape=mxgraph.ios7.icons.mail;" vertex="1" parent="0cetAtY3qcK3y_h9nXg2-1">
          <mxGeometry x="354" y="1250.6" width="60" height="40" as="geometry" />
        </mxCell>
        <mxCell id="W749RNHQacZeZyzqG_Gk-2" value="" style="dashed=0;outlineConnect=0;html=1;align=center;labelPosition=center;verticalLabelPosition=bottom;verticalAlign=top;shape=mxgraph.weblogos.twitter;fillColor=#1DA1F2;strokeColor=none" vertex="1" parent="0cetAtY3qcK3y_h9nXg2-1">
          <mxGeometry x="60" y="1250.6" width="60" height="40" as="geometry" />
        </mxCell>
        <mxCell id="W749RNHQacZeZyzqG_Gk-3" value="" style="shape=image;html=1;verticalAlign=top;verticalLabelPosition=bottom;labelBackgroundColor=#ffffff;imageAspect=0;aspect=fixed;image=https://cdn0.iconfinder.com/data/icons/social-network-9/50/3-128.png" vertex="1" parent="0cetAtY3qcK3y_h9nXg2-1">
          <mxGeometry x="151" y="1240" width="58.5" height="58.5" as="geometry" />
        </mxCell>
        <mxCell id="W749RNHQacZeZyzqG_Gk-4" value="" style="dashed=0;outlineConnect=0;html=1;align=center;labelPosition=center;verticalLabelPosition=bottom;verticalAlign=top;shape=mxgraph.weblogos.instagram;fillColor=#6FC0E4;gradientColor=#1E305B" vertex="1" parent="0cetAtY3qcK3y_h9nXg2-1">
          <mxGeometry x="256" y="1244.5" width="60" height="52.2" as="geometry" />
        </mxCell>
        <mxCell id="W749RNHQacZeZyzqG_Gk-5" value="Ubicacion:" style="text;strokeColor=none;fillColor=none;html=1;fontSize=24;fontStyle=1;verticalAlign=middle;align=center;" vertex="1" parent="0cetAtY3qcK3y_h9nXg2-1">
          <mxGeometry x="925" y="624" width="100" height="40" as="geometry" />
        </mxCell>
        <mxCell id="W749RNHQacZeZyzqG_Gk-6" value="" style="shape=image;html=1;verticalAlign=top;verticalLabelPosition=bottom;labelBackgroundColor=#ffffff;imageAspect=0;aspect=fixed;image=https://cdn2.iconfinder.com/data/icons/google-ios-7-app-icons/120/google_maps.png" vertex="1" parent="0cetAtY3qcK3y_h9nXg2-1">
          <mxGeometry x="870" y="780" width="270" height="270" as="geometry" />
        </mxCell>
        <mxCell id="R7bKeDxcvMkYdvDt4DJ_-1" value="" style="verticalLabelPosition=bottom;html=1;verticalAlign=top;align=center;strokeColor=none;fillColor=#00BEF2;shape=mxgraph.azure.azure_marketplace;" vertex="1" parent="0cetAtY3qcK3y_h9nXg2-1">
          <mxGeometry x="590" y="110" width="90" height="80" as="geometry" />
        </mxCell>
        <mxCell id="R7bKeDxcvMkYdvDt4DJ_-2" value="Iniciar Sesion" style="strokeWidth=1;shadow=0;dashed=0;align=center;html=1;shape=mxgraph.mockup.text.textBox;fontColor=#666666;align=left;fontSize=17;spacingLeft=4;spacingTop=-3;whiteSpace=wrap;strokeColor=#666666;mainText=" vertex="1" parent="0cetAtY3qcK3y_h9nXg2-1">
          <mxGeometry x="1110" y="166" width="150" height="40" as="geometry" />
        </mxCell>
        <mxCell id="R7bKeDxcvMkYdvDt4DJ_-3" value="Crear Cuenta" style="strokeWidth=1;shadow=0;dashed=0;align=center;html=1;shape=mxgraph.mockup.text.textBox;fontColor=#666666;align=left;fontSize=17;spacingLeft=4;spacingTop=-3;whiteSpace=wrap;strokeColor=#666666;mainText=" vertex="1" parent="0cetAtY3qcK3y_h9nXg2-1">
          <mxGeometry x="960" y="166" width="150" height="40" as="geometry" />
        </mxCell>
        <mxCell id="R7bKeDxcvMkYdvDt4DJ_-5" value="Joyeria" style="strokeWidth=1;shadow=0;dashed=0;align=center;html=1;shape=mxgraph.mockup.text.textBox;fontColor=#666666;align=left;fontSize=17;spacingLeft=4;spacingTop=-3;whiteSpace=wrap;strokeColor=#666666;mainText=" vertex="1" parent="0cetAtY3qcK3y_h9nXg2-1">
          <mxGeometry x="130" y="206" width="100" height="30" as="geometry" />
        </mxCell>
        <mxCell id="R7bKeDxcvMkYdvDt4DJ_-6" value="Accesorios" style="strokeWidth=1;shadow=0;dashed=0;align=center;html=1;shape=mxgraph.mockup.text.textBox;fontColor=#666666;align=left;fontSize=17;spacingLeft=4;spacingTop=-3;whiteSpace=wrap;strokeColor=#666666;mainText=" vertex="1" parent="0cetAtY3qcK3y_h9nXg2-1">
          <mxGeometry x="230" y="206" width="120" height="30" as="geometry" />
        </mxCell>
        <mxCell id="R7bKeDxcvMkYdvDt4DJ_-7" value="FAQ" style="strokeWidth=1;shadow=0;dashed=0;align=center;html=1;shape=mxgraph.mockup.text.textBox;fontColor=#666666;align=left;fontSize=17;spacingLeft=4;spacingTop=-3;whiteSpace=wrap;strokeColor=#666666;mainText=" vertex="1" parent="0cetAtY3qcK3y_h9nXg2-1">
          <mxGeometry x="520" y="206" width="80" height="30" as="geometry" />
        </mxCell>
        <mxCell id="R7bKeDxcvMkYdvDt4DJ_-8" value="Hogar" style="strokeWidth=1;shadow=0;dashed=0;align=center;html=1;shape=mxgraph.mockup.text.textBox;fontColor=#666666;align=left;fontSize=17;spacingLeft=4;spacingTop=-3;whiteSpace=wrap;strokeColor=#666666;mainText=" vertex="1" parent="0cetAtY3qcK3y_h9nXg2-1">
          <mxGeometry x="350" y="206" width="80" height="30" as="geometry" />
        </mxCell>
        <mxCell id="R7bKeDxcvMkYdvDt4DJ_-9" value="Outlet" style="strokeWidth=1;shadow=0;dashed=0;align=center;html=1;shape=mxgraph.mockup.text.textBox;fontColor=#666666;align=left;fontSize=17;spacingLeft=4;spacingTop=-3;whiteSpace=wrap;strokeColor=#666666;mainText=" vertex="1" parent="0cetAtY3qcK3y_h9nXg2-1">
          <mxGeometry x="430" y="206" width="90" height="30" as="geometry" />
        </mxCell>
        <mxCell id="R7bKeDxcvMkYdvDt4DJ_-10" value="" style="rounded=0;whiteSpace=wrap;html=1;" vertex="1" parent="0cetAtY3qcK3y_h9nXg2-1">
          <mxGeometry x="820" y="206" width="40" height="30" as="geometry" />
        </mxCell>
        <mxCell id="R7bKeDxcvMkYdvDt4DJ_-11" value="" style="html=1;verticalLabelPosition=bottom;labelBackgroundColor=#ffffff;verticalAlign=top;shadow=0;dashed=0;strokeWidth=2;shape=mxgraph.ios7.misc.more;strokeColor=#a0a0a0;" vertex="1" parent="0cetAtY3qcK3y_h9nXg2-1">
          <mxGeometry x="828" y="211" width="20" height="20" as="geometry" />
        </mxCell>
        <mxCell id="R7bKeDxcvMkYdvDt4DJ_-12" value="ContÃ¡ctanos" style="strokeWidth=1;shadow=0;dashed=0;align=center;html=1;shape=mxgraph.mockup.text.textBox;fontColor=#666666;align=left;fontSize=17;spacingLeft=4;spacingTop=-3;whiteSpace=wrap;strokeColor=#666666;mainText=" vertex="1" parent="0cetAtY3qcK3y_h9nXg2-1">
          <mxGeometry x="670" y="206" width="150" height="30" as="geometry" />
        </mxCell>
        <mxCell id="R7bKeDxcvMkYdvDt4DJ_-13" value="" style="verticalLabelPosition=bottom;shadow=0;dashed=0;align=center;html=1;verticalAlign=top;strokeWidth=1;shape=mxgraph.mockup.misc.shoppingCart;strokeColor=#999999;" vertex="1" parent="0cetAtY3qcK3y_h9nXg2-1">
          <mxGeometry x="1280" y="156" width="50" height="50" as="geometry" />
        </mxCell>
        <mxCell id="R7bKeDxcvMkYdvDt4DJ_-14" value="Search" style="strokeWidth=1;shadow=0;dashed=0;align=center;html=1;shape=mxgraph.mockup.forms.searchBox;strokeColor=#999999;mainText=;strokeColor2=#008cff;fontColor=#666666;fontSize=17;align=left;spacingLeft=3;whiteSpace=wrap;" vertex="1" parent="0cetAtY3qcK3y_h9nXg2-1">
          <mxGeometry x="860" y="206" width="550" height="30" as="geometry" />
        </mxCell>
        <mxCell id="R7bKeDxcvMkYdvDt4DJ_-15" value="EnvÃ­os" style="strokeWidth=1;shadow=0;dashed=0;align=center;html=1;shape=mxgraph.mockup.text.textBox;fontColor=#666666;align=left;fontSize=17;spacingLeft=4;spacingTop=-3;whiteSpace=wrap;strokeColor=#666666;mainText=" vertex="1" parent="0cetAtY3qcK3y_h9nXg2-1">
          <mxGeometry x="595" y="206" width="80" height="30" as="geometry" />
        </mxCell>
        <mxCell id="R7bKeDxcvMkYdvDt4DJ_-4" value="Indumentaria" style="strokeWidth=1;shadow=0;dashed=0;align=center;html=1;shape=mxgraph.mockup.text.textBox;fontColor=#666666;align=left;fontSize=17;spacingLeft=4;spacingTop=-3;whiteSpace=wrap;strokeColor=#666666;mainText=" vertex="1" parent="0cetAtY3qcK3y_h9nXg2-1">
          <mxGeometry y="206" width="130" height="30" as="geometry" />
        </mxCell>
      </root>
    </mxGraphModel>
  </diagram>
</mxfile>
